<?xml version="1.0" encoding="UTF-8" standalone="no"?>
<!-- Created with Inkscape (http://www.inkscape.org/) -->

<svg
   xmlns:dc="http://purl.org/dc/elements/1.1/"
   xmlns:cc="http://creativecommons.org/ns#"
   xmlns:rdf="http://www.w3.org/1999/02/22-rdf-syntax-ns#"
   xmlns:svg="http://www.w3.org/2000/svg"
   xmlns="http://www.w3.org/2000/svg"
   xmlns:sodipodi="http://sodipodi.sourceforge.net/DTD/sodipodi-0.dtd"
   xmlns:inkscape="http://www.inkscape.org/namespaces/inkscape"
   width="1600"
   height="1200"
   id="svg3347"
   version="1.1"
   inkscape:version="0.91 r13725"
   viewBox="0 0 1600 1200"
   sodipodi:docname="SimplePilotlogoSVG.svg">
  <defs
     id="defs3349" />
  <sodipodi:namedview
     id="base"
     pagecolor="#ffffff"
     bordercolor="#666666"
     borderopacity="1.0"
     inkscape:pageopacity="0.0"
     inkscape:pageshadow="2"
     inkscape:zoom="0.3"
     inkscape:cx="800"
     inkscape:cy="333.33333"
     inkscape:current-layer="layer1"
     inkscape:document-units="px"
     showgrid="false"
     inkscape:window-width="1366"
     inkscape:window-height="706"
     inkscape:window-x="-8"
     inkscape:window-y="-8"
     inkscape:window-maximized="1" />
  <metadata
     id="metadata3352">
    <rdf:RDF>
      <cc:Work
         rdf:about="">
        <dc:format>image/svg+xml</dc:format>
        <dc:type
           rdf:resource="http://purl.org/dc/dcmitype/StillImage" />
        <dc:title></dc:title>
      </cc:Work>
    </rdf:RDF>
  </metadata>
  <g
     id="layer1"
     inkscape:label="Layer 1"
     inkscape:groupmode="layer">
    <path
       style="fill:#000000"
       d="m 123.85509,958.29087 0.0104,-13.4017 42.96769,-0.6067 42.96768,-0.6067 0.007,-8.5587 0.007,-8.5586 -37.9782,-1.269 c -47.90742,-1.6007 -46.63888,-0.6143 -47.62282,-37.032 -0.65159,-24.11697 -0.55232,-24.76768 4.8397,-31.72057 l 5.50496,-7.09851 51.75079,0.0631 c 50.6933,0.0618 51.77258,0.16651 52.81744,5.13247 0.58669,2.78819 0.57207,8.81891 -0.0324,13.40162 l -1.09914,8.33223 -41.72771,0.60819 -41.7278,0.60823 -0.007,8.55869 -0.007,8.55872 38.20662,1.2692 c 48.72007,1.6185 47.21241,0.01 45.87612,48.9628 -0.3676,13.4664 -1.18608,16.7337 -5.35844,21.3902 -4.84537,5.4077 -5.76454,5.495 -57.16519,5.4324 l -52.24063,-0.064 0.0104,-13.4017 z m 128.40764,0.1087 0.0104,-13.4494 10.86526,0.013 10.86526,0.013 0.0273,-34.2348 0.0273,-34.23475 -10.86526,-0.0132 -10.86525,-0.0132 0.0104,-13.44938 0.0104,-13.44937 35.55902,0.0433 35.55904,0.0433 -0.0104,13.44938 -0.0104,13.44937 -10.86526,-0.0132 -10.86526,-0.0132 -0.0273,34.23476 -0.0273,34.2348 10.86527,0.013 10.86526,0.013 -0.0104,13.4494 -0.0104,13.4493 -35.55904,-0.043 -35.55903,-0.043 0.0104,-13.4494 z m 84.8657,10.4961 c -0.0718,-3.1222 0.0382,-107.09343 0.12148,-115.02275 0.0412,-3.92867 1.88323,-4.29765 18.19917,-3.64584 l 18.1532,0.72523 13.91228,34.8631 c 7.65175,19.17466 14.61674,34.86396 15.47775,34.86496 0.86102,0 6.46504,-12.9218 12.45342,-28.7176 17.15493,-45.25004 13.40611,-40.83179 35.31089,-41.61634 17.86258,-0.63978 18.90075,-0.40408 18.95036,4.30244 0.0288,2.7386 0.0395,21.48536 0.0233,41.6594 -0.016,20.1741 -0.0616,45.4833 -0.10121,56.2428 l -0.0721,19.5627 -13.82851,-0.017 c -9.68322,-0.012 -13.86297,-0.9332 -13.94342,-3.0737 -0.0633,-1.6812 -0.085,-13.8266 -0.0483,-26.9898 0.0366,-13.1631 -0.69431,-23.3521 -1.62431,-22.6422 -1.57175,1.1998 -4.41201,7.3848 -18.00846,39.2153 l -5.21993,12.2204 -13.60582,-0.017 -13.60584,-0.016 -8.27035,-18.074 c -4.54871,-9.9408 -9.09945,-18.7495 -10.11278,-19.5751 -1.01331,-0.8256 -2.64338,-4.8032 -3.62237,-8.8392 -1.35693,-5.5943 -1.91791,-0.8004 -2.3604,20.1712 l -0.58046,27.5094 -13.76381,-0.017 c -9.65533,-0.012 -13.78476,-0.9292 -13.834,-3.0735 z m 146.07869,2.012 c -0.0982,-0.6726 -0.17116,-10.5763 -0.16207,-22.0083 0.009,-11.4319 0.10213,-26.8156 0.20675,-34.1859 l 0.19026,-13.4005 41.97993,-0.6088 41.97994,-0.6089 0.009,-11.004 0.009,-11.00403 -41.72666,-0.70991 -41.72668,-0.70988 -1.08588,-8.33489 c -0.59724,-4.58418 -0.60227,-10.61492 -0.0116,-13.40167 1.05322,-4.96543 2.1078,-5.06402 52.70117,-4.92664 l 51.62646,0.14017 5.42792,5.92543 c 5.23984,5.72008 5.42725,6.77124 5.4085,30.3369 -0.0349,43.89762 -0.61886,44.41422 -50.13923,44.35382 l -36.81816,-0.045 -0.0165,20.7242 -0.0165,20.7243 -13.82851,-0.017 c -7.60569,-0.01 -13.9089,-0.5672 -14.00714,-1.2397 z m 126.65934,-59.7566 0.0486,-61.1335 13.82851,0.0169 c 13.00439,0.0158 13.83212,0.34475 13.88921,5.51895 0.0333,3.02615 0.0457,24.48406 0.0276,47.68426 l -0.0331,42.1821 37.46901,0.046 37.469,0.046 -0.0105,13.4493 -0.0104,13.4494 -51.36304,-0.063 -51.36305,-0.063 0.0486,-61.1335 z m 116.4358,58.2188 c -0.0718,-3.1229 0.0382,-107.17086 0.12161,-114.931 0.0425,-3.96443 3.82487,-4.27469 51.40885,-4.21671 l 51.36304,0.0626 -0.0104,13.44937 -0.0104,13.44939 -37.53453,-0.0457 -37.53453,-0.0457 -0.008,9.78139 -0.008,9.7813 19.75503,0.024 19.75501,0.024 -0.0116,14.6721 -0.0117,14.672 -19.75502,-0.024 -19.75501,-0.024 -0.008,9.7814 -0.008,9.7814 37.53452,0.046 37.53453,0.046 -0.0104,13.4493 -0.0104,13.4494 -51.36305,-0.063 c -39.73471,-0.048 -51.37893,-0.7546 -51.43323,-3.1194 z m 168.01604,-32.1961 0.0282,-35.4574 42.3838,0.052 42.3837,0.052 1.3012,-8.5387 c 2.4843,-16.30371 3.5605,-15.90883 -43.514,-15.96618 l -42.53526,-0.0518 0.0104,-13.44937 0.0104,-13.44938 52.99417,0.0646 c 65.62999,0.08 61.54899,-2.48453 61.78489,38.82481 0.1698,29.7258 -2.0495,38.1996 -10.65949,40.7001 -2.4315,0.7062 -19.9782,1.5276 -38.9927,1.8254 l -34.5717,0.5414 -0.388,17.1169 c -0.2134,9.4143 -0.4429,18.4924 -0.51,20.1735 -0.086,2.1603 -4.4658,3.0512 -14.9381,3.0384 l -14.8163,-0.018 0.0282,-35.4574 z m 128.3901,22.1646 0.01,-13.4494 10.8653,0.013 10.8653,0.013 0.028,-34.2348 0.027,-34.23481 -10.8652,-0.0132 -10.8653,-0.0132 0.01,-13.44938 0.01,-13.44937 35.4216,0.0431 c 35.2295,0.0429 35.425,0.073 36.0485,5.54595 0.3449,3.02654 0.3046,9.07871 -0.089,13.44928 -0.7079,7.85324 -0.8391,7.94634 -11.1682,7.93377 l -10.4518,-0.0127 -0.1617,24.89669 c -0.089,13.6932 0.7445,26.2509 1.852,27.906 1.3733,2.0524 1.3545,3.5124 -0.059,4.5915 -1.1398,0.8702 -2.0742,3.718 -2.0763,6.3285 0,4.123 1.4233,4.7481 10.8615,4.7596 l 10.8652,0.013 -0.012,13.4494 -0.012,13.4494 -35.559,-0.043 -35.5591,-0.043 0.01,-13.4493 z m 84.8657,10.4961 c -0.072,-3.1229 0.038,-107.1709 0.1214,-114.93105 0.039,-3.66296 2.0376,-4.27687 13.8744,-4.26245 l 13.8285,0.0169 -0.038,47.6842 -0.038,47.6841 37.5345,0.046 37.5346,0.046 -0.012,13.4494 -0.012,13.4494 -51.363,-0.063 c -39.7347,-0.048 -51.379,-0.7546 -51.4333,-3.1193 z m 125.234,0.7845 c -9.6201,-4.8191 -10.5747,-10.1398 -10.5361,-58.7217 0.04,-49.54575 0.7098,-52.95235 11.5063,-58.47259 3.9882,-2.03921 18.7884,-2.67123 49.4271,-2.1108 l 43.7342,0.8 5.0896,6.31746 5.0895,6.31746 -0.03,45.85457 c -0.034,49.8635 -1.0771,55.3828 -11.3802,60.2173 -6.1519,2.8867 -87.0849,2.7109 -92.8991,-0.2017 z m 76.3859,-58.6158 0.026,-31.78944 -29.5137,-0.036 -29.5138,-0.036 0.1806,31.78974 0.1807,31.7896 29.3078,0.036 29.3078,0.036 0.025,-31.7895 z m 77.034,13.5433 0.038,-47.6842 -17.7795,-0.0217 -17.7796,-0.0217 0.012,-13.44938 0.012,-13.44937 51.2256,0.0624 51.2256,0.0624 0.6269,5.50279 c 0.3448,3.02654 0.3046,9.07872 -0.089,13.44928 l -0.7163,7.9465 -19.4693,-0.0237 -19.4693,-0.0237 -0.012,44.62756 c 0,24.5451 -0.052,46.0029 -0.1079,47.684 -0.07,2.1427 -4.2345,3.0516 -13.9284,3.0397 l -13.8284,-0.017 0.038,-47.6842 z M 374.95094,698.11996 l 0.0602,-75.80558 -29.55246,-0.036 -29.55243,-0.036 0.1443,36.40653 c 0.0793,20.0236 -0.46764,37.6294 -1.21553,39.12402 -0.95851,1.91547 -23.10069,2.691 -75.02452,2.62774 l -73.6647,-0.0898 -3.61506,9.89743 c -9.59909,26.28064 -36.59809,40.12231 -59.68519,30.59898 -45.81882,-18.90007 -45.7458,-98.15056 0.10806,-117.30771 11.88463,-4.96524 18.55659,-4.96645 30.48223,-0.005 13.29098,5.5289 21.46494,13.95069 28.45521,29.3179 l 6.03457,13.26622 61.15909,0.0745 61.1591,0.0745 -0.20164,-26.28769 c -0.11096,-14.45823 -0.14519,-32.06476 -0.0759,-39.1256 l 0.12555,-12.83798 42.47328,0.0518 42.4733,0.0518 0.0175,-22.00808 0.0175,-22.00807 -104.48743,-0.12731 -104.48743,-0.1273 -1.18436,5.8169 c -2.14175,10.51907 -18.276,30.06282 -28.29577,34.27526 -25.10469,10.55433 -50.85469,-1.52076 -62.2685,-29.19991 -2.21953,-5.38246 -4.58238,-10.33716 -5.25077,-11.01045 -0.6684,-0.67328 -1.20901,-9.11257 -1.20134,-18.75397 0.008,-9.64142 0.3595,-17.09904 0.78184,-16.57253 0.42235,0.5265 2.42808,-3.18597 4.45716,-8.24998 12.31772,-30.7413 39.76549,-43.10624 66.91058,-30.14254 6.9641,3.32584 19.05759,18.56952 23.71059,29.88683 l 3.93854,9.57957 103.70212,0.13369 103.70209,0.13369 0.0233,-29.28206 0.0233,-29.28208 -71.11807,-0.0867 -71.11806,-0.0867 -0.10562,-6.72483 c -0.0582,-3.69866 -0.0491,-21.30512 0.0212,-39.12547 l 0.12592,-32.40066 -32.45955,-0.0396 -32.45952,-0.0396 -5.56816,12.74431 c -10.10428,23.12658 -28.8304,35.52506 -49.63227,32.86131 -32.27166,-4.13249 -53.0974,-47.21391 -40.71988,-84.23571 6.75631,-20.20846 23.22568,-35.78206 41.00732,-38.77689 19.33472,-3.25641 43.96176,14.35222 51.53393,36.84738 l 2.951,8.76882 46.52508,0.0567 46.5251,0.0567 -0.0302,37.9028 -0.0302,37.90278 57.28955,0.0698 57.28954,0.0698 0.0486,-61.13354 0.0486,-61.13353 -42.47329,-0.0518 -42.47329,-0.0518 -0.20538,-36.06906 c -0.11304,-19.838 -0.0599,-37.44441 0.11765,-39.12537 0.25257,-2.38847 -13.20643,-3.07277 -61.59488,-3.13173 l -61.91806,-0.0755 -2.56541,8.75488 c -2.24192,7.6509 -20.17738,33.13291 -22.96985,32.63468 -0.56568,-0.10085 -5.93154,1.07022 -11.92413,2.60254 -20.63775,5.27713 -40.68081,-4.86956 -52.18785,-26.4198 -3.24683,-6.08064 -6.39389,-14.47445 -6.99346,-18.6529 -1.82736,-12.73521 -2.44814,-30.8296 -1.05762,-30.82791 0.72166,8.8e-4 2.36234,-3.57343 3.64595,-7.94293 3.42005,-11.64201 13.50699,-25.6493 22.88245,-31.77588 11.53794,-7.53968 34.46226,-7.54824 45.92642,-0.0171 9.35631,6.14639 18.61121,18.39459 22.33797,29.56271 l 2.59917,7.78898 75.20253,0.73176 75.20254,0.73175 -0.40131,34.10252 c -0.22072,18.75638 0.10609,36.08815 0.72623,38.51505 1.01807,3.98411 3.89568,4.41589 29.6392,4.44726 l 28.51164,0.0348 0.0602,-75.80557 0.0602,-75.80559 403.00235,0.49103 403.0023,0.49102 0.052,21.39682 c 0.029,11.76826 -0.029,45.88073 -0.127,75.80551 l -0.1793,54.40868 29.6994,0.0361 29.6994,0.0362 0.031,-39.12546 0.031,-39.12546 75.1311,0.0915 c 69.757,0.0849 75.2212,-0.21445 76.3928,-4.18627 0.694,-2.3528 3.7475,-8.81155 6.7856,-14.35277 3.0383,-5.54122 5.1152,-10.7656 4.6155,-11.60975 -0.4997,-0.84414 -0.3615,-1.03996 0.307,-0.43515 0.6685,0.60482 5.7204,-1.80909 11.2264,-5.36426 15.4816,-9.99637 29.6387,-10.32247 45.6047,-1.05042 19.0821,11.08173 29.1196,32.04557 27.946,58.36737 -0.9999,22.42728 -9.7283,39.42863 -26.46,51.53866 -7.6092,5.5074 -11.4115,6.58291 -23.0091,6.50823 -9.3245,-0.06 -16.0427,-1.4987 -20.4286,-4.37465 -10.2903,-6.7477 -21.1031,-20.08053 -25.0138,-30.84378 l -3.5867,-9.87177 -60.9406,-0.0742 -60.9404,-0.0742 -0.031,39.12546 -0.031,39.12547 -43.4611,-0.0529 -43.4611,-0.053 -0.017,22.00807 -0.017,22.00808 104.5254,0.12735 104.5255,0.12735 4.2897,-10.94174 c 14.0225,-35.76564 52.5643,-44.35078 78.3399,-17.45007 15.7588,16.44666 20.2252,49.8888 9.9307,74.35479 -2.9695,7.0573 -4.7313,12.83229 -3.915,12.83328 1.4723,0.001 -5.3355,5.06632 -19.8271,14.74988 -10.8671,7.2616 -27.8928,6.90301 -41.3282,-0.87047 -12.9126,-7.47095 -17.577,-12.95939 -23.1458,-27.23486 l -4.3715,-11.20603 -104.4313,-0.12724 -104.4313,-0.12724 -0.059,28.12138 -0.059,28.12139 70.9438,0.0864 c 49.0646,0.0598 71.3536,0.90888 72.2724,2.75315 0.7307,1.46667 1.2074,19.07374 1.0593,39.12679 l -0.2693,36.46008 32.5171,0.0396 32.517,0.0396 3.4916,-9.0847 c 10.6923,-27.82071 37.9978,-41.66304 61.7007,-31.27877 12.082,5.29319 20.5961,14.40307 26.9631,28.84978 4.7108,10.68896 5.6669,15.75398 5.6725,30.05354 0.012,14.2749 -0.896,19.10041 -5.3045,28.39095 -13.1848,27.78622 -37.3617,39.20973 -61.5424,29.07859 -9.6204,-4.03062 -22.0503,-17.79194 -27.0459,-29.94258 l -3.8222,-9.2965 -45.9082,-0.71229 -45.9084,-0.71227 -0.5111,-39.73746 -0.5113,-39.73745 -58.2284,-0.0709 -58.2283,-0.0709 -0.05,62.35621 -0.05,62.35621 43.461,0.053 43.461,0.053 -0.031,39.12547 -0.031,39.12545 61.0009,0.0743 61.0008,0.0743 2.6598,-7.92618 c 3.7227,-11.09392 14.8721,-25.67694 24.3859,-31.89574 11.0672,-7.23427 32.3696,-7.15779 43.7304,0.15696 11.9755,7.7106 21.8885,22.69328 25.6496,38.76715 8.9372,38.19419 -11.9929,74.93585 -44.7596,78.57343 -18.8465,2.09223 -39.7596,-13.00072 -48.048,-34.67617 l -3.3288,-8.70572 -74.4933,-0.73142 -74.4932,-0.73134 -0.5134,-38.51479 -0.5134,-38.51479 -29.5824,-0.036 -29.5824,-0.036 -0.06,75.80559 -0.06,75.80559 -403.00226,-0.49103 -403.00234,-0.49103 0.0602,-75.80558 z m 770.04466,-256.4342 0.6112,-287.93848 -366.34385,-0.44637 -366.34385,-0.44636 -0.22947,288.55676 -0.22946,288.55676 365.96219,-0.17189 365.96214,-0.17193 0.6111,-287.93849 z m -702.67343,-0.24482 0.20028,-251.87017 38.69018,0.0471 38.69017,0.0471 -8.05549,11.30561 c -11.79893,16.55938 -15.15744,37.53757 -9.69,60.5267 2.79403,11.74826 20.05827,34.6804 27.96606,37.1474 l 5.15974,1.60969 -0.10968,137.8967 -0.10968,137.8967 31.60803,0.0385 31.60803,0.0385 -0.0467,58.68819 -0.0467,58.6882 -78.03232,-0.0951 -78.03232,-0.0951 0.2003,-251.87017 z m 185.4068,247.81698 c -0.0494,-2.35371 -0.2449,-36.19139 -0.43409,-75.19486 l -0.344,-70.91539 -31.05627,-0.71093 -31.05627,-0.71088 -0.4944,-71.4652 c -0.27192,-39.30583 -0.23642,-93.62382 0.0782,-120.70662 l 0.57321,-49.24144 6.38278,-3.24929 c 12.53683,-6.38211 22.83818,-20.95276 27.24056,-38.53016 3.82771,-15.28042 3.9321,-34.53258 0.18792,-34.53714 -0.75982,-9.3e-4 -1.52156,-2.33424 -1.69276,-5.18513 -0.35993,-5.99342 -9.56767,-23.31801 -14.16659,-26.65484 -2.35799,-1.71088 -1.42618,-2.30595 3.7868,-2.41838 9.91045,-0.21373 260.3821,0.0697 268.66826,0.30412 l 6.9141,0.19552 -5.27745,4.86732 c -7.15124,6.5955 -15.22464,24.20365 -17.26631,37.6579 -2.04397,13.46941 1.46204,34.54134 7.49591,45.05237 5.05568,8.807 17.25484,21.01845 23.35552,23.37903 3.76908,1.4584 4.4487,3.45734 4.47775,13.17001 0.0604,20.18254 -0.003,123.39828 -0.0863,139.2197 l -0.0799,15.28321 -31.54802,-0.0385 -31.54806,-0.0385 -0.0959,108.20634 c -0.0533,59.51349 -0.11978,110.13203 -0.1495,112.48563 -0.0491,3.93768 -3.36513,4.27525 -41.53898,4.22875 l -41.48553,-0.0506 0.11363,-142.87301 0.11363,-142.87301 11.02966,-7.79356 c 13.75805,-9.72143 21.27206,-22.29342 24.49055,-40.9761 2.14959,-12.47796 2.04276,-16.41599 -0.77166,-28.44394 -6.4591,-27.60412 -28.10496,-46.94231 -50.32478,-44.95963 -11.70886,1.04479 -27.19286,9.18752 -33.52765,17.63155 -14.14281,18.85187 -17.87585,46.18631 -9.39456,68.78998 4.84253,12.90592 18.58609,29.62003 26.34647,32.04106 4.1052,1.28072 4.50143,2.81701 4.55062,17.64392 0.0698,21.04503 -0.12456,264.71002 -0.21447,268.72245 -0.0522,2.33218 -8.72999,3.04604 -36.61521,3.01207 -33.45384,-0.0408 -36.55439,-0.4067 -36.63686,-4.32399 z m 213.52009,-90.8289 0.0758,-95.36833 31.60803,0.0385 31.60802,0.0385 0.079,-99.76775 0.079,-99.76777 6.8158,-3.04139 c 9.6419,-4.30253 23.804,-24.58726 26.5494,-38.02765 4.9999,-24.47704 1.6233,-42.81198 -11.1223,-60.39446 l -8.6903,-11.98828 60.4359,0.0736 60.43579,0.0736 -0.057,72.13757 -0.057,72.13758 -31.6081,-0.0385 -31.60799,-0.0385 -0.1,125.56371 -0.1,125.56369 -8.0028,4.45535 c -9.0802,5.05512 -20.4356,19.64649 -18.4271,23.67823 0.7526,1.51055 0.4318,1.98634 -0.7357,1.09122 -3.2879,-2.52086 -8.4299,16.67461 -8.4417,31.51354 -0.012,14.85235 3.4167,27.1659 10.9955,39.49057 l 4.9717,8.08506 -57.39004,-0.0699 -57.39008,-0.0699 0.0758,-95.36831 z m 188.12384,86.13587 c 3.8022,-5.19932 8.0241,-13.60641 9.382,-18.68241 3.8164,-14.26716 1.5742,-37.38257 -4.9703,-51.23704 -5.3558,-11.33803 -18.689,-25.78598 -23.8022,-25.79222 -1.4026,-10e-4 -3.1434,-1.1938 -3.8685,-2.6491 -1.4193,-2.84894 -1.4465,-212.46268 -0.028,-214.21536 0.469,-0.57944 14.5074,-1.24931 31.1962,-1.48857 l 30.3435,-0.435 0.4705,-88.93419 c 0.2587,-48.91381 0.9101,-89.47723 1.4472,-90.14094 1.1384,-1.40632 44.809,-1.21905 45.9507,0.19704 0.5433,0.67385 0.8275,447.9271 0.3168,498.66551 -0.039,3.95334 -3.5968,4.27497 -46.6972,4.22246 l -46.6542,-0.0568 6.9133,-9.45332 z m -52.0737,-13.30085 c -9.4504,-7.87504 -13.3815,-22.28295 -9.5075,-34.84521 3.688,-11.95919 11.5086,-18.942 23.0508,-20.5815 8.02,-1.13917 10.0115,-0.48166 14.5375,4.79975 6.8761,8.02374 9.7466,15.24214 10.0427,25.25453 0.7071,23.90938 -21.8577,38.92696 -38.1235,25.37243 z m -273.27091,-296.877 c -16.42576,-10.05946 -16.98981,-43.36238 -0.90834,-53.63143 20.67182,-13.20031 42.99276,9.58047 35.47439,36.20519 -5.11505,18.11389 -20.65269,25.94707 -34.56605,17.42624 z M 880.03172,271.03777 c -17.19916,-9.37575 -19.04079,-40.66702 -3.07881,-52.31231 23.50629,-17.14933 47.55709,22.58085 27.81459,45.94774 -5.94597,7.03757 -17.87206,10.10617 -24.73578,6.36457 z m -338.73656,-3.77863 c -6.26254,-3.93213 -13.87357,-17.92369 -13.86756,-25.49306 0.007,-8.0479 4.81039,-18.84019 11.11207,-24.96359 11.19986,-10.88301 29.70065,-2.93345 34.40916,14.7852 3.15432,11.87004 1.16868,20.64973 -6.93408,30.6599 -7.22689,8.92808 -15.7348,10.65295 -24.71959,5.01155 z M 129.95814,708.83949 c 8.56843,-5.4715 11.88516,-12.97086 11.89623,-26.89826 0.0116,-13.92738 -3.29371,-21.4348 -11.85343,-26.92718 -11.57357,-7.42623 -26.77266,-2.13606 -32.87376,11.44198 -3.45988,7.7 -3.32084,22.71976 0.29055,31.38525 5.59121,13.41607 20.73733,18.53525 32.54041,10.99821 z M 1454.781,706.07638 c 9.5554,-10.81815 11.2602,-25.80501 4.3669,-38.38923 -6.2602,-11.42835 -12.5203,-15.15932 -23.2485,-13.85552 -7.0028,0.85104 -10.1625,2.87836 -15.3179,9.82803 -5.3871,7.26205 -6.4968,10.68839 -6.5042,20.08346 -0.012,9.89791 0.958,12.52707 7.653,20.83066 6.695,8.30361 8.8171,9.50444 16.8132,9.51418 7.59,0.01 10.3601,-1.35758 16.2375,-8.01158 z M 135.24442,547.6838 c 8.48851,-10.48671 9.86927,-28.18725 3.10069,-39.74931 -9.11005,-15.56177 -26.59734,-16.60536 -37.3423,-2.22846 -5.4457,7.28643 -6.42869,10.44579 -6.43684,20.68822 -0.008,10.3665 0.93723,13.33368 6.63709,20.82944 5.97575,7.85856 7.69001,8.74218 16.98236,8.7535 9.1203,0.0111 11.12628,-0.96412 17.059,-8.29339 z m 1315.88168,5.12578 c 14.5767,-10.97733 16.3608,-34.0461 3.7425,-48.3885 -11.43,-12.99179 -28.2454,-10.4241 -36.8082,5.6206 -7.4413,13.94324 -4.0796,32.0213 7.8017,41.95339 8.1814,6.83929 16.8911,7.1201 25.264,0.81451 z M 130.0477,384.1702 c 15.66919,-9.94379 17.02244,-43.31029 2.15691,-53.18156 -11.91272,-7.91047 -27.90246,-3.42137 -34.12054,9.57928 -3.79213,7.92851 -4.47299,24.90482 -1.29441,32.27403 5.21322,12.0863 22.68551,18.03764 33.25804,11.32825 z m 1324.1578,-2.96275 c 12.6791,-11.15223 11.6134,-39.60846 -1.8469,-49.31652 -22.9034,-16.51885 -47.7803,13.83377 -34.1194,41.62933 7.3534,14.96181 23.7189,18.4597 35.9663,7.68719 z M 127.32107,228.34883 c 17.20465,-8.07293 21.08458,-36.45659 7.10703,-51.99148 -10.83497,-12.04216 -32.75994,-6.63763 -37.6649,9.28446 -8.24509,26.76462 10.04811,52.3308 30.55787,42.70702 z m 1321.53383,1.21603 c 2.7346,-1.53827 4.5036,-3.73693 3.9312,-4.88589 -0.5724,-1.14897 0.3223,-2.08738 1.9883,-2.08535 3.7379,0.005 9.0668,-12.19641 9.0737,-20.77436 0.013,-15.7711 -11.671,-30.58103 -24.1372,-30.59622 -14.2492,-0.0174 -25.2669,12.953 -25.2205,29.6907 0.06,22.02847 18.6241,37.50544 34.3645,28.65112 z"
       id="path3422"
       inkscape:connector-curvature="0" />
    <path
       style="fill:#000044;stroke-width:35.78740311;stroke-linecap:round;stroke-linejoin:round;stroke-miterlimit:4;stroke-dasharray:none"
       d="m 633.16667,772.16697 -255.83334,-0.87504 0,-74.9793 0,-74.9793 -31.66666,0 -31.66667,0 0,38.33334 0,38.33333 -74.25293,0 -74.25294,0 -6.5804,14.16667 c -22.51708,48.4761 -82.971617,32.73646 -87.577227,-22.80114 -5.307187,-63.9977 58.055617,-91.8405 87.189177,-38.31256 L 167.74941,668 l 61.45863,0 61.45863,0 0,-40 0,-40 43.33333,0 43.33333,0 0,-23.33333 0,-23.33334 -105.99704,0 -105.99703,0 -4.13614,11.4383 c -6.37448,17.6283 -24.63246,31.89504 -40.81797,31.89504 -18.59947,0 -31.340704,-7.55974 -41.255517,-24.4781 -11.796366,-20.12897 -11.796366,-47.5815 0,-67.71047 20.809627,-35.50897 62.136897,-32.5055 81.750947,5.9412 l 6.58825,12.91403 105.05734,0 105.05734,0 L 376.62509,480.5 375.66667,449.66667 304.83333,448.76703 234,447.8674 l 0,-38.26703 0,-38.26704 -33.26559,0 -33.26558,0 -6.58825,12.91403 C 141.52221,422.1929 103.57986,427.37021 82.1517,394.99008 64.368583,368.11798 66.93162,335.49403 88.602772,312.87676 100.85455,300.0901 104.7415,298 116.269,298 c 17.73047,0 34.27981,11.25106 42.731,29.05066 l 6.66667,14.04109 47.5,0.1208 47.5,0.12078 0,38.33334 0,38.33333 58.33333,0 58.33333,0 0,-61.66667 0,-61.66666 -30.83333,-0.0367 c -16.95833,-0.0202 -36.41097,-0.95875 -43.22808,-2.08573 L 290.87717,290.49521 289.93858,253.41427 289,216.33333 l -61.8047,-0.90432 -61.8047,-0.90433 -3.95799,10.94562 c -10.97934,30.36283 -34.88265,41.53366 -60.71988,28.37646 -33.04755,-16.82894 -40.333825,-66.72418 -14.30475,-97.95663 8.532345,-10.23801 18.59697,-14.5568 33.92356,-14.5568 16.24166,0 34.48667,14.2379 40.87158,31.89505 l 4.13614,11.43829 74.33037,0 74.33037,0 0,33.06071 c 0,18.18338 0.91048,35.43338 2.0233,38.33333 1.6351,4.261 7.71075,5.27262 31.66666,5.27262 l 29.64337,0 0,-75 0,-75 401.66667,0 401.6667,0 0,75 0,75 19.5833,0 c 10.7708,0 24.2708,0.9375 30,2.08334 l 10.4167,2.08333 0,-40.41667 0,-40.41666 74.9438,0 74.9439,0 8.051,-15.88788 c 13.2076,-26.06409 40.1926,-34.67765 62.4017,-19.91855 32.0478,21.29744 34.8064,72.32319 5.4251,100.34603 -12.6463,12.06158 -14.5208,12.77457 -29.74,11.31219 -18.9792,-1.82365 -29.2452,-9.95974 -39.6267,-31.40514 l -6.9935,-14.44665 -61.3694,0 -61.3693,0 0,40 0,40 -43.3333,0 -43.3333,0 0,23.33333 0,23.33333 104.9322,0 104.9323,0 6.5882,-12.91403 c 3.6236,-7.10271 11.4609,-17.01407 17.4163,-22.02524 9.3582,-7.87439 13.0127,-8.90129 26.9216,-7.56483 34.6873,3.33301 52.7796,39.12915 40.9985,81.11672 -4.4578,15.88749 -7.8149,21.25157 -17.1163,27.34878 -17.3364,11.36427 -27.5236,12.13274 -44.6728,3.3699 -11.2859,-5.76681 -16.9447,-11.58508 -22.8537,-23.49796 l -7.8536,-15.83334 -104.6464,0 -104.6463,0 0,30 0,30 64.1666,0.0455 c 35.2917,0.025 67.5417,0.94998 71.6667,2.05544 7.2208,1.93511 7.5,3.42232 7.5,39.95446 l 0,37.9446 33.036,0 33.036,0 7.2005,-14.8743 c 12.489,-25.7988 41.2309,-36.02096 63.7982,-22.69013 12.2494,7.2359 26.2626,34.8003 26.2626,51.6593 0,35.08963 -29.2722,65.6097 -57.7127,60.17293 -10.359,-1.98026 -31.7559,-22.65683 -34.4167,-33.25806 -1.7255,-6.87494 -3.89,-7.6785 -20.7319,-7.69637 -10.3429,-0.01 -31.1346,-0.9798 -46.2038,-2.1529 l -27.3984,-2.1329 -0.9349,-38.68047 L 1299,463 l -59.1667,-0.91023 -59.1666,-0.91027 0,65.07693 0,65.0769 43.3333,0 43.3333,0 0,38.33334 0,38.33333 61.599,0 61.5989,0 6.5882,-12.91403 c 10.3035,-20.19657 24.5957,-30.4193 42.5285,-30.4193 13.0626,0 16.8593,1.7229 27.7116,12.57516 24.4574,24.45747 26.1915,63.6505 3.9428,89.11864 -10.0447,11.49833 -29.1722,19.39256 -40.2757,16.62253 -13.5839,-3.3888 -29.5391,-17.23973 -33.9682,-29.48827 l -4.0348,-11.15796 -52.0118,-2.15727 c -28.6065,-1.1865 -61.9199,-2.1623 -74.0298,-2.1684 l -22.018,-0.01 -2.125,-22.5 c -1.1687,-12.375 -2.1356,-29.625 -2.1486,-38.33333 l -0.024,-15.83444 -30,0 -30,0 0,76.66667 0,76.66667 -145.8334,-0.81234 c -80.2083,-0.44676 -260.9583,-1.2061 -401.66663,-1.68736 z m 514.16663,-330.83364 0,-290 -368.3333,0 -368.33333,0 0,290 0,290 368.33333,0 368.3333,0 0,-290 z M 132.98079,706.62193 c 7.91963,-6.81216 9.35254,-10.58883 9.35254,-24.65003 0,-20.14 -7.81324,-30.63857 -22.80178,-30.63857 -15.5056,0 -25.53155,11.4404 -25.53155,29.13354 0,17.35203 4.419457,26.82816 14.38457,30.8432 11.32319,4.56223 14.5591,3.94543 24.59622,-4.68814 z M 1457.0914,705.8838 c 8.1143,-10.31567 8.9695,-27.5629 2.0319,-40.97873 C 1445.9284,639.38897 1414,651.7673 1414,682.39897 c 0,19.75926 9.6911,32.2677 25,32.2677 8.1107,0 13.0807,-2.41277 18.0914,-8.78287 z M 133.91521,551.41813 c 8.42324,-8.42326 11.38862,-20.423 8.65191,-35.0109 C 136.23295,482.6432 94,490.75207 94,525.7323 c 0,27.3947 23.24679,42.35423 39.91521,25.68583 z m 1321.90299,-1.59996 c 5.6659,-5.66594 8.1818,-11.8832 8.1818,-20.21914 0,-29.71983 -23.6929,-44.87586 -41.8182,-26.75053 C 1404.5431,520.48723 1415.9824,558 1439,558 c 4.75,0 12.3182,-3.68183 16.8182,-8.18183 z M 135.98337,380.98337 c 4.58167,-5.06267 6.34996,-11.99137 6.34996,-24.88095 0,-21.72767 -6.21008,-29.43575 -23.71518,-29.43575 -16.61038,0 -24.61815,10.2335 -24.61815,31.46068 0,13.37473 1.466444,17.20895 8.78286,22.96405 11.26688,8.86253 25.12308,8.81744 33.20051,-0.10803 z m 1321.10803,-1.76623 c 18.4552,-23.46197 -2.8754,-63.78118 -26.9556,-50.9518 -11.9221,6.35181 -15.9137,13.43666 -16.0298,28.4518 C 1413.9614,375.43024 1423.964,388 1439,388 c 8.1107,0 13.0807,-2.41278 18.0914,-8.78286 z m -2.835,-154.29406 c 18.9931,-18.99312 9.1438,-53.58975 -15.2564,-53.58975 -24.4002,0 -34.2495,34.59663 -15.2564,53.58975 5.359,5.35897 12.2243,9.74359 15.2564,9.74359 3.0321,0 9.8974,-4.38462 15.2564,-9.74359 z m -1321.13116,1.31445 c 8.08072,-5.65996 12.74507,-23.66518 9.49017,-36.63374 C 134.29135,156.43812 94,164.27987 94,199.06562 c 0,26.70583 19.98008,40.5817 39.12524,27.17191 z"
       id="path3424"
       inkscape:connector-curvature="0" />
    <path
       style="fill:#808080;stroke-width:35.78740311;stroke-linecap:round;stroke-linejoin:round;stroke-miterlimit:4;stroke-dasharray:none"
       d="m 444,441.33333 0,-250 35,0 c 19.25,0 35,0.66426 35,1.47614 0,0.81187 -2.99254,6.54811 -6.6501,12.7472 -16.12949,27.33747 -11.51713,60.46915 11.80688,84.81142 L 534,305.85934 534,441.92967 534,578 l 31.66667,0 31.66666,0 0,56.66667 0,56.66666 -76.66666,0 -76.66667,0 0,-250 z"
       id="path3426"
       inkscape:connector-curvature="0" />
    <path
       style="fill:#2b2b2b;stroke-width:35.78740311;stroke-linecap:round;stroke-linejoin:round;stroke-miterlimit:4;stroke-dasharray:none"
       d="m 629.52445,653.83333 c -1.18844,-20.625 -2.16762,-54.375 -2.17596,-75 l -0.0152,-37.5 -30,0 -30,0 0,-119.37314 0,-119.37313 9.94496,-7.35263 c 20.71934,-15.31847 30.37235,-49.82059 21.51511,-76.90005 -3.07664,-9.40628 -6.91378,-17.91807 -8.52698,-18.91508 -11.1542,-6.89367 8.35281,-8.08597 132.29389,-8.08597 l 135.22698,0 -6.3838,9.16667 c -21.31151,30.60172 -18.11046,68.18446 7.94473,93.27725 L 874,307.88783 l 0,80.05609 0,80.05608 -31.66667,0 -31.66666,0 0,111.66667 0,111.66666 -40,0 -40,0 0,-140.43096 0,-140.43097 14.68128,-13.7357 c 10.1974,-9.54062 15.9016,-18.30638 18.67692,-28.70121 7.745,-29.00859 -3.88441,-63.63564 -25.95244,-77.27443 -21.8789,-13.5219 -53.81189,-2.42396 -65.81643,22.87373 -14.18865,29.90035 -9.21369,60.25062 13.61882,83.08313 l 14.79185,14.79185 0,139.9123 0,139.91226 -34.49071,0 -34.4907,0 -2.16081,-37.5 z"
       id="path3428"
       inkscape:connector-curvature="0" />
  </g>
</svg>
